<svg width="80" height="80" viewBox="0 0 80 80" fill="none" xmlns="http://www.w3.org/2000/svg">
<rect width="80" height="80" fill="white"/>
<g clip-path="url(#clip0_3_8)">
<path d="M21.0003 38.451C21.0003 40.5691 20.6202 41.4298 18.2903 41.4758C15.9639 41.4298 15.5978 40.5691 15.5978 38.451V32.0118H14V38.451C14 41.3341 14.3801 42.928 17.9911 43.0874C18.0861 43.0874 18.1952 43.0874 18.2903 43.0874C18.3712 43.0874 18.4486 43.0874 18.5296 43.0874H18.688V43.0697C22.218 42.8961 22.584 41.3164 22.584 38.451V32.0118H21.0003V38.451ZM25.7657 34.5443C27.5536 37.3991 29.3591 40.2503 31.1646 43.0874H32.7483V32.0118H31.1646V40.4416L26.6842 33.0319L26.6983 33.0142L26.3499 32.4723L26.3358 32.4581L26.0507 32.0118H25.7657H24.1643V43.0874H25.7657V34.5443ZM35.9159 32.0118H34.3321V43.0874H35.9159V32.0118ZM48.4734 37.5797C48.4734 34.4982 45.971 32.0118 42.8809 32.0118C39.7943 32.0118 37.292 34.4982 37.292 37.5797C37.292 40.6647 39.7943 43.1653 42.8809 43.1653C43.7995 43.1653 44.6864 42.928 45.4642 42.5277L45.7634 43.0874H47.7449L46.8263 41.5396C47.8399 40.5372 48.4734 39.1311 48.4734 37.5797ZM38.8934 37.5797C38.8934 35.3943 40.6813 33.6199 42.8809 33.6199C45.0841 33.6199 46.872 35.3943 46.872 37.5797C46.872 39.7863 45.0841 41.5573 42.8809 41.5573C40.6813 41.5573 38.8934 39.7863 38.8934 37.5797ZM56.8498 38.451C56.8498 40.5691 56.4697 41.4298 54.1398 41.4758C51.8134 41.4298 51.4474 40.5691 51.4474 38.451V32.0118H49.8495V38.451C49.8495 41.3341 50.2296 42.928 53.8406 43.0874C53.9356 43.0874 54.0448 43.0874 54.1398 43.0874C54.2207 43.0874 54.2982 43.0874 54.3791 43.0874H54.5375V43.0697C58.0675 42.8961 58.4336 41.3164 58.4336 38.451V32.0118H56.8498V38.451ZM67 43.0874V41.4935H61.5976V37.8595H65.733L67 36.2515H61.5976V33.6199H67V32.0118H61.5976H60.0173V33.6199V41.4935V43.0874H61.5976H67Z" fill="black"/>
<path d="M14 48.7119V45.765H15.633V46.1724H14.4751V46.9126H15.633V47.3341H14.4751V48.2833H15.633V48.7119H14ZM21.1974 46.1724V48.7119H20.7222V46.1724H19.9444V45.765H21.9716V46.1724H21.1974ZM26.4132 48.7119V45.765H26.8884V48.7119H26.4132ZM33.6106 47.66L33.8922 47.961C33.9801 47.8548 34.047 47.7414 34.0892 47.6245C34.1315 47.5041 34.1491 47.3801 34.1491 47.242C34.1491 47.0897 34.1244 46.948 34.0716 46.817C34.0189 46.6859 33.9414 46.5655 33.8394 46.4628C33.7373 46.3565 33.6212 46.2786 33.4909 46.2219C33.3607 46.1653 33.2235 46.1369 33.0827 46.1369C32.9419 46.1369 32.8046 46.1653 32.6709 46.2219C32.5407 46.2786 32.4245 46.3565 32.326 46.4628C32.2239 46.5655 32.1465 46.6859 32.0937 46.817C32.0374 46.948 32.0127 47.0897 32.0127 47.242C32.0127 47.5502 32.1148 47.8087 32.3225 48.0212C32.5301 48.2337 32.787 48.34 33.0932 48.34C33.1777 48.34 33.2551 48.3294 33.3326 48.3117C33.4065 48.294 33.4804 48.2656 33.5578 48.2267L33.0334 47.66H33.6106ZM34.2054 48.3117L34.8283 48.9882H34.2582L33.8781 48.5702C33.7443 48.6446 33.6141 48.6977 33.4804 48.7332C33.3431 48.765 33.2023 48.7827 33.058 48.7827C32.8574 48.7827 32.6639 48.7438 32.4738 48.6659C32.2802 48.5844 32.1148 48.4746 31.974 48.3365C31.8227 48.1912 31.7101 48.0248 31.6326 47.837C31.5552 47.6529 31.5165 47.451 31.5165 47.242C31.5165 47.0295 31.5552 46.8311 31.6326 46.647C31.7101 46.4592 31.8227 46.2928 31.974 46.1476C32.1183 46.0023 32.2873 45.8925 32.4773 45.8146C32.6674 45.7402 32.868 45.7013 33.0827 45.7013C33.2938 45.7013 33.4945 45.7402 33.6845 45.8146C33.8746 45.8925 34.04 46.0023 34.1878 46.1476C34.3356 46.2963 34.4482 46.4628 34.5292 46.647C34.6066 46.8347 34.6453 47.033 34.6453 47.242C34.6453 47.4439 34.6101 47.6387 34.5327 47.8229C34.4588 48.0035 34.3497 48.17 34.2054 48.3117ZM39.2488 45.765H39.7204V47.5572C39.7204 47.8229 39.7803 48.0212 39.9034 48.1558C40.0266 48.2869 40.2096 48.3542 40.4525 48.3542C40.6918 48.3542 40.8748 48.2869 40.998 48.1558C41.1177 48.0212 41.181 47.8229 41.181 47.5572V45.765H41.6562V47.5997C41.6562 48 41.5541 48.2975 41.3535 48.4958C41.1564 48.6942 40.8537 48.7934 40.449 48.7934C40.0477 48.7934 39.7486 48.6942 39.548 48.4958C39.3509 48.2975 39.2488 48 39.2488 47.5997V45.765ZM46.3793 48.7119V45.765H48.0159V46.1724H46.8544V46.9126H48.0159V47.3341H46.8544V48.2833H48.0159V48.7119H46.3793ZM53.5767 46.1724V48.7119H53.1015V46.1724H52.3237V45.765H54.351V46.1724H53.5767ZM59.1058 47.5537H59.9223L59.6231 46.8843C59.6056 46.8418 59.588 46.7922 59.5668 46.7355C59.5492 46.6788 59.5316 46.6186 59.514 46.5478C59.4964 46.6151 59.4788 46.6718 59.4612 46.7284C59.4437 46.7851 59.4261 46.8347 59.4049 46.8843L59.1058 47.5537ZM60.4221 48.7119L60.0912 47.9539H58.9298L58.5884 48.7119H58.0886L59.507 45.6517L60.9254 48.7119H60.4221ZM65.103 48.1239L65.4831 47.9468C65.5183 48.0779 65.5852 48.1771 65.6802 48.2479C65.7752 48.3152 65.8984 48.3506 66.0497 48.3506C66.1905 48.3506 66.3031 48.3117 66.3876 48.2337C66.4686 48.1523 66.5108 48.046 66.5108 47.915C66.5108 47.7414 66.37 47.5856 66.0814 47.451C66.0427 47.4297 66.011 47.4156 65.9899 47.4085C65.6696 47.2491 65.4514 47.1074 65.3458 46.9764C65.2367 46.8489 65.1839 46.693 65.1839 46.5088C65.1839 46.268 65.2649 46.0732 65.4268 45.9244C65.5887 45.7757 65.8034 45.7013 66.0638 45.7013C66.282 45.7013 66.4615 45.7402 66.6058 45.8252C66.7536 45.9103 66.8522 46.0307 66.9085 46.1865L66.5389 46.3813C66.4791 46.2857 66.4158 46.2184 66.3454 46.1759C66.275 46.1334 66.194 46.1121 66.1025 46.1121C65.9758 46.1121 65.8738 46.1476 65.7963 46.2149C65.7224 46.2786 65.6837 46.3707 65.6837 46.484C65.6837 46.6611 65.8491 46.8241 66.18 46.9764C66.2081 46.9905 66.2257 47.0012 66.2398 47.0047C66.5319 47.1393 66.729 47.2703 66.8381 47.4014C66.9437 47.5289 67 47.6883 67 47.8796C67 48.1594 66.912 48.3825 66.736 48.5454C66.5636 48.7084 66.3243 48.7934 66.0286 48.7934C65.7787 48.7934 65.5746 48.7332 65.4162 48.6198C65.2578 48.5029 65.1523 48.34 65.103 48.1239Z" fill="black"/>
</g>
<defs>
<clipPath id="clip0_3_8">
<rect width="53" height="17" fill="white" transform="translate(14 32)"/>
</clipPath>
</defs>
</svg>
